Coordinates
version=1
nRows=26
nColumns=27
inDegrees=yes

Units are S.I. units (second, meters, Newtons, ...)
If the header above contains a line with 'inDegrees', this indicates whether rotational values are in degrees (yes) or radians (no).

endheader
time	pelvis_rotation	pelvis_tilt	pelvis_list	pelvis_tx	pelvis_ty	pelvis_tz	hip_flexion_r	hip_adduction_r	hip_rotation_r	knee_angle_r	knee_rotation_r	knee_adduction_r	knee_angle_r_beta	ankle_angle_r	subtalar_angle_r	mtp_angle_r	hip_flexion_l	hip_adduction_l	hip_rotation_l	knee_angle_l	knee_rotation_l	knee_adduction_l	knee_angle_l_beta	ankle_angle_l	subtalar_angle_l	mtp_angle_l
      3.94500000	      4.88480150	    -40.96704629	      4.72653735	      0.00922808	      0.61990529	     -1.15712247	    107.97198814	    -46.95839572	     -2.00685667	     82.47120258	      0.00000000	      9.89113401	      1.43939402	     10.16090152	      0.00000000	      0.00000000	    104.79490758	    -35.62812437	     -3.42429544	     75.29064089	      0.00000000	     -9.91542056	      1.31406958	      2.76095223	      0.00000000	      0.00000000
      3.95000000	      4.88003471	    -40.98824751	      4.71847222	      0.00941217	      0.61822561	     -1.15690776	    108.30531411	    -46.98057040	     -1.75752161	     82.79188206	      0.00000000	      9.89166659	      1.44499094	     10.28841768	      0.00000000	      0.00000000	    105.10374658	    -35.70843282	     -3.23426153	     75.59302348	      0.00000000	     -9.91583001	      1.31934715	      2.84552049	      0.00000000	      0.00000000
      3.95500000	      4.83725508	    -40.98825445	      4.73176227	      0.00961918	      0.61654020	     -1.15669139	    108.66454335	    -46.96179177	     -1.44629757	     83.12174807	      0.00000000	      9.89207637	      1.45074818	     10.41104205	      0.00000000	      0.00000000	    105.34907178	    -35.82986921	     -3.09109643	     75.88841392	      0.00000000	     -9.91638133	      1.32450269	      2.90606447	      0.00000000	      0.00000000
      3.96000000	      4.82758397	    -40.99193273	      4.72838090	      0.00983390	      0.61486427	     -1.15647631	    108.99688986	    -46.98840297	     -1.18523018	     83.45754838	      0.00000000	      9.89268542	      1.45660900	     10.52284737	      0.00000000	      0.00000000	    105.62574028	    -35.90819269	     -2.90952706	     76.17720004	      0.00000000	     -9.91675079	      1.32954296	      2.98171302	      0.00000000	      0.00000000
      3.96500000	      4.86942338	    -40.95621735	      4.67936043	      0.01005947	      0.61319867	     -1.15630845	    109.18942965	    -47.09209212	     -1.04519574	     83.75005476	      0.00000000	      9.89319353	      1.46171420	     10.64719732	      0.00000000	      0.00000000	    105.92776916	    -35.90373028	     -2.61346485	     76.48842370	      0.00000000	     -9.91712391	      1.33497483	      3.08749279	      0.00000000	      0.00000000
      3.97000000	      4.82224856	    -40.96187941	      4.71284663	      0.01026834	      0.61153483	     -1.15612598	    109.57454345	    -47.05224519	     -0.70064042	     84.07076660	      0.00000000	      9.89359269	      1.46731168	     10.76663043	      0.00000000	      0.00000000	    106.15653712	    -36.03007712	     -2.50372565	     76.77661436	      0.00000000	     -9.91761372	      1.34000471	      3.15534364	      0.00000000	      0.00000000
      3.97500000	      4.78236331	    -40.95481067	      4.71717301	      0.01047727	      0.60987249	     -1.15593263	    109.90948935	    -47.03891131	     -0.41395986	     84.38919228	      0.00000000	      9.89395081	      1.47286926	     10.86697463	      0.00000000	      0.00000000	    106.40273797	    -36.12598157	     -2.33098041	     77.06789862	      0.00000000	     -9.91799008	      1.34508858	      3.24807933	      0.00000000	      0.00000000
      3.98000000	      4.77357111	    -40.93807514	      4.69080082	      0.01073258	      0.60818221	     -1.15576911	    110.18239977	    -47.08094704	     -0.19902561	     84.70462488	      0.00000000	      9.89456165	      1.47837460	     11.01229786	      0.00000000	      0.00000000	    106.68381839	    -36.19307051	     -2.11268447	     77.37012473	      0.00000000	     -9.91835012	      1.35036342	      3.33103358	      0.00000000	      0.00000000
      3.98500000	      4.73245287	    -40.93731581	      4.69064051	      0.01093675	      0.60654645	     -1.15559224	    110.50592802	    -47.06508097	      0.07086078	     85.01149789	      0.00000000	      9.89494464	      1.48373054	     11.12238346	      0.00000000	      0.00000000	    106.93522185	    -36.27792196	     -1.92806143	     77.65768901	      0.00000000	     -9.91871987	      1.35538236	      3.43341813	      0.00000000	      0.00000000
      3.99000000	      4.74622808	    -40.86208920	      4.66761198	      0.01122117	      0.60482927	     -1.15544551	    110.72780106	    -47.14668134	      0.28620447	     85.32892946	      0.00000000	      9.89551741	      1.48927077	     11.23520288	      0.00000000	      0.00000000	    107.16430597	    -36.30463979	     -1.68299380	     77.96151065	      0.00000000	     -9.91903597	      1.36068505	      3.50125614	      0.00000000	      0.00000000
      3.99500000	      4.66674895	    -40.92313175	      4.70468407	      0.01137289	      0.60316945	     -1.15527927	    111.17937787	    -47.06104229	      0.64079708	     85.64134229	      0.00000000	      9.89579031	      1.49472340	     11.34246377	      0.00000000	      0.00000000	    107.43119955	    -36.43939369	     -1.56529266	     78.24741607	      0.00000000	     -9.91939318	      1.36567504	      3.66335255	      0.00000000	      0.00000000
      4.00000000	      4.63237652	    -40.91211285	      4.69030725	      0.01158190	      0.60149785	     -1.15513085	    111.48102642	    -47.06900652	      0.88275597	     85.94445339	      0.00000000	      9.89622606	      1.50001369	     11.43174275	      0.00000000	      0.00000000	    107.69485232	    -36.51303280	     -1.35358139	     78.53714107	      0.00000000	     -9.91974111	      1.37073170	      3.73605573	      0.00000000	      0.00000000
      4.00500000	      4.59558101	    -40.90313132	      4.68360870	      0.01180570	      0.59981730	     -1.15497995	    111.79650664	    -47.07419036	      1.13789858	     86.25459340	      0.00000000	      9.89679565	      1.50542665	     11.54072354	      0.00000000	      0.00000000	    107.95057659	    -36.59305027	     -1.15666091	     78.83001265	      0.00000000	     -9.92008499	      1.37584327	      3.84338775	      0.00000000	      0.00000000
      4.01000000	      4.55512475	    -40.90044368	      4.65840540	      0.01201225	      0.59809405	     -1.15483745	    112.10583297	    -47.08447374	      1.37167518	     86.56674050	      0.00000000	      9.89724776	      1.51087464	     11.66522212	      0.00000000	      0.00000000	    108.24026189	    -36.66696293	     -0.92440344	     79.13195092	      0.00000000	     -9.92037968	      1.38111309	      3.93977743	      0.00000000	      0.00000000
      4.01500000	      4.49385469	    -40.87950464	      4.64140368	      0.01223520	      0.59641480	     -1.15467681	    112.40650396	    -47.07185901	      1.62079556	     86.87254143	      0.00000000	      9.89771778	      1.51621188	     11.76934188	      0.00000000	      0.00000000	    108.48515929	    -36.76727812	     -0.72491786	     79.42308300	      0.00000000	     -9.92073065	      1.38619430	      4.03490903	      0.00000000	      0.00000000
      4.02000000	      4.44184543	    -40.86257612	      4.63649969	      0.01246654	      0.59474284	     -1.15451004	    112.72182913	    -47.06654983	      1.88060535	     87.18206370	      0.00000000	      9.89831105	      1.52161406	     11.87830660	      0.00000000	      0.00000000	    108.72035893	    -36.86613822	     -0.54687760	     79.70318832	      0.00000000	     -9.92096053	      1.39108306	      4.13430591	      0.00000000	      0.00000000
      4.02500000	      4.50973486	    -40.80502082	      4.55479599	      0.01270349	      0.59304902	     -1.15441736	    112.86701460	    -47.24913790	      1.94645209	     87.46725561	      0.00000000	      9.89883031	      1.52659160	     11.94649838	      0.00000000	      0.00000000	    109.03860589	    -36.78682819	     -0.17368463	     80.00601265	      0.00000000	     -9.92120705	      1.39636834	      4.24445258	      0.00000000	      0.00000000
      4.03000000	      4.34191877	    -40.86521891	      4.56110073	      0.01285395	      0.59138309	     -1.15419667	    113.31084713	    -47.08343206	      2.29115484	     87.77973004	      0.00000000	      9.89927175	      1.53204531	     12.03451504	      0.00000000	      0.00000000	    109.31070117	    -37.02242627	     -0.06358594	     80.28682935	      0.00000000	     -9.92164501	      1.40126952	      4.30670537	      0.00000000	      0.00000000
      4.03500000	      4.39996000	    -40.79751238	      4.49671439	      0.01310645	      0.58970017	     -1.15407713	    113.46745785	    -47.25297532	      2.38604571	     88.06498433	      0.00000000	      9.89976571	      1.53702393	     12.15969089	      0.00000000	      0.00000000	    109.59163398	    -36.96716056	      0.26446609	     80.57460248	      0.00000000	     -9.92173299	      1.40629211	      4.41581692	      0.00000000	      0.00000000
      4.04000000	      4.38323070	    -40.81144300	      4.38452295	      0.01332266	      0.58809482	     -1.15390064	    113.65656677	    -47.34541509	      2.43627758	     88.35131225	      0.00000000	      9.90036366	      1.54202130	     12.23454855	      0.00000000	      0.00000000	    109.96947199	    -36.97283170	      0.61916645	     80.86190733	      0.00000000	     -9.92203624	      1.41130652	      4.50679011	      0.00000000	      0.00000000
      4.04500000	      4.28804785	    -40.85588493	      4.41309616	      0.01350074	      0.58645814	     -1.15373133	    114.08060738	    -47.26255332	      2.76144628	     88.64473390	      0.00000000	      9.90087000	      1.54714247	     12.33617947	      0.00000000	      0.00000000	    110.23272224	    -37.14043603	      0.73120589	     81.14759010	      0.00000000	     -9.92233524	      1.41629263	      4.60024961	      0.00000000	      0.00000000
      4.05000000	      4.13354213	    -40.87123670	      4.45416809	      0.01368327	      0.58483909	     -1.15345585	    114.51164770	    -47.10471448	      3.13925011	     88.95780871	      0.00000000	      9.90127845	      1.55260666	     12.46121043	      0.00000000	      0.00000000	    110.40830848	    -37.37895713	      0.79375175	     81.38998862	      0.00000000	     -9.92270274	      1.42052328	      4.66426177	      0.00000000	      0.00000000
      4.05500000	      4.07975439	    -40.90400823	      4.40026291	      0.01385325	      0.58325808	     -1.15323290	    114.80001112	    -47.10982919	      3.30255014	     89.24093410	      0.00000000	      9.90159646	      1.55754813	     12.53732886	      0.00000000	      0.00000000	    110.73906745	    -37.45303050	      1.05531943	     81.65481412	      0.00000000	     -9.92303114	      1.42514536	      4.72638191	      0.00000000	      0.00000000
      4.06000000	      4.04594074	    -40.90646769	      4.37341269	      0.01406180	      0.58166534	     -1.15302592	    115.08637149	    -47.13314336	      3.49875622	     89.52195871	      0.00000000	      9.90216713	      1.56245293	     12.59727863	      0.00000000	      0.00000000	    111.02170882	    -37.53195553	      1.27054496	     81.92741653	      0.00000000	     -9.92330379	      1.42990317	      4.80207565	      0.00000000	      0.00000000
      4.06500000	      4.00571488	    -40.95977197	      4.33141159	      0.01421136	      0.58015415	     -1.15278088	    115.39723274	    -47.14731568	      3.65498185	     89.79819595	      0.00000000	      9.90257398	      1.56727418	     12.70013512	      0.00000000	      0.00000000	    111.35389447	    -37.60155803	      1.50737523	     82.17278629	      0.00000000	     -9.92356066	      1.43418568	      4.86735451	      0.00000000	      0.00000000
      4.07000000	      3.95730375	    -40.94586420	      4.04628314	      0.01438179	      0.57866870	     -1.15249805	    115.32875251	    -47.28228029	      3.43389588	     90.03807772	      0.00000000	      9.90308558	      1.57146091	     12.84029257	      0.00000000	      0.00000000	    111.83001128	    -37.57132942	      2.05937655	     82.43091533	      0.00000000	     -9.92377656	      1.43869088	      4.88680048	      0.00000000	      0.00000000
